<svg width="207" height="40" viewBox="0 0 207 40" fill="none" xmlns="http://www.w3.org/2000/svg">
<g id="logo/kgmca/type">
<path d="M3.77523 6.7173H4.43097C4.68687 6.7173 4.91078 6.68532 5.08671 6.60535C5.26264 6.54137 5.40658 6.41343 5.53453 6.25349L9.67688 1.00758C9.85281 0.783671 10.0287 0.623734 10.2207 0.543766C10.4126 0.463798 10.6525 0.415817 10.9404 0.415817H13.3554L8.28543 6.66932C8.1255 6.86125 7.98155 7.02118 7.82162 7.16513C7.67768 7.29308 7.51774 7.40503 7.3578 7.485C7.58171 7.56496 7.78963 7.69292 7.98155 7.83686C8.15748 7.99679 8.34941 8.18872 8.50934 8.41263L13.7233 15.4498H11.2443C10.9084 15.4498 10.6685 15.4018 10.5085 15.3059C10.3486 15.2099 10.2047 15.082 10.0927 14.89L5.83841 9.34026C5.69446 9.16433 5.55052 9.03638 5.37459 8.95641C5.19866 8.87644 4.95876 8.82846 4.63889 8.82846H3.75924V15.4338H0.960355V0.383832H3.75924V6.70131L3.77523 6.7173Z" fill="#C8102E"/>
<path d="M23.6078 15.45H22.4562C22.2163 15.45 22.0244 15.4181 21.8805 15.3381C21.7365 15.2741 21.6406 15.1142 21.5766 14.8903L21.3527 14.1386C21.0808 14.3785 20.8249 14.5864 20.553 14.7783C20.2971 14.9702 20.0252 15.1142 19.7533 15.2421C19.4814 15.3701 19.1776 15.466 18.8737 15.53C18.5698 15.594 18.2179 15.626 17.8341 15.626C17.3863 15.626 16.9704 15.562 16.5866 15.45C16.2027 15.3381 15.8829 15.1462 15.611 14.9063C15.3391 14.6664 15.1312 14.3625 14.9712 13.9946C14.8113 13.6268 14.7473 13.2109 14.7473 12.7311C14.7473 12.3313 14.8593 11.9314 15.0672 11.5316C15.2751 11.1318 15.627 10.7799 16.1228 10.46C16.6186 10.1402 17.2743 9.88426 18.09 9.67635C18.9057 9.46843 19.9292 9.35647 21.1288 9.35647V8.73273C21.1288 8.01301 20.9848 7.48522 20.681 7.13336C20.3771 6.7815 19.9452 6.62157 19.3695 6.62157C18.9536 6.62157 18.6018 6.66955 18.3299 6.76551C18.058 6.86147 17.8181 6.97343 17.6102 7.08538C17.4023 7.21333 17.2103 7.30929 17.0504 7.42125C16.8905 7.5332 16.6826 7.56519 16.4746 7.56519C16.2987 7.56519 16.1548 7.51721 16.0268 7.43724C15.8989 7.34128 15.8029 7.22932 15.7229 7.10137L15.2591 6.2857C16.4906 5.16615 17.962 4.60637 19.7053 4.60637C20.3291 4.60637 20.8889 4.70233 21.3687 4.91025C21.8485 5.11817 22.2643 5.40605 22.6162 5.75791C22.968 6.10977 23.2079 6.55759 23.3839 7.06939C23.5598 7.58118 23.6558 8.12497 23.6558 8.73273V15.466L23.6078 15.45ZM18.6178 13.8507C18.8737 13.8507 19.1296 13.8347 19.3535 13.7867C19.5774 13.7387 19.7853 13.6748 19.9772 13.5788C20.1692 13.4828 20.3611 13.3709 20.553 13.2269C20.7289 13.083 20.9209 12.9231 21.1128 12.7311V10.9398C20.3611 10.9398 19.7373 10.9878 19.2415 11.0838C18.7457 11.1797 18.3299 11.2917 18.026 11.4516C17.7221 11.5956 17.4982 11.7715 17.3703 11.9634C17.2423 12.1554 17.1784 12.3793 17.1784 12.6032C17.1784 13.051 17.3063 13.3869 17.5782 13.5788C17.8501 13.7707 18.1859 13.8667 18.6178 13.8667V13.8507Z" fill="#C8102E"/>
<path d="M29.6365 15.6253C28.7089 15.6253 28.0052 15.3694 27.5094 14.8416C27.0136 14.3138 26.7577 13.5941 26.7577 12.6665V6.71687H25.6701C25.5262 6.71687 25.4142 6.66889 25.3182 6.58892C25.2223 6.50896 25.1743 6.36501 25.1743 6.18908V5.16549L26.8856 4.87761L27.4294 1.96677C27.4614 1.82283 27.5254 1.72686 27.6213 1.6469C27.7173 1.56693 27.8452 1.53494 28.0052 1.53494H29.3326V4.8936H32.1315V6.71687H29.3326V12.4906C29.3326 12.8264 29.4126 13.0823 29.5885 13.2743C29.7485 13.4662 29.9724 13.5621 30.2603 13.5621C30.4202 13.5621 30.5482 13.5461 30.6601 13.4982C30.7721 13.4662 30.868 13.4182 30.948 13.3702C31.028 13.3222 31.0919 13.2902 31.1559 13.2583C31.2199 13.2263 31.2839 13.1943 31.3478 13.1943C31.4278 13.1943 31.4918 13.2103 31.5398 13.2583C31.5877 13.2902 31.6357 13.3542 31.6997 13.4342L32.4674 14.6817C32.0995 15.0016 31.6677 15.2255 31.1719 15.3854C30.6921 15.5454 30.1803 15.6253 29.6685 15.6253H29.6365Z" fill="#C8102E"/>
<path d="M34.1785 15.4498V0H36.7535V5.93363C37.1693 5.53379 37.6331 5.21392 38.1289 4.97402C38.6247 4.73411 39.2165 4.60616 39.8882 4.60616C40.464 4.60616 40.9918 4.70213 41.4396 4.89405C41.8874 5.08597 42.2712 5.37386 42.5751 5.72572C42.879 6.07758 43.1029 6.50941 43.2629 7.00521C43.4228 7.50101 43.5028 8.04479 43.5028 8.63656V15.4179H40.9278V8.63656C40.9278 7.98082 40.7838 7.48502 40.48 7.11716C40.1761 6.7653 39.7283 6.58937 39.1205 6.58937C38.6727 6.58937 38.2568 6.68534 37.873 6.89325C37.4892 7.08518 37.1213 7.37306 36.7694 7.70893V15.4179H34.1945L34.1785 15.4498Z" fill="#C8102E"/>
<path d="M46.0148 15.45V4.78222H47.5182C47.7901 4.78222 47.9661 4.8302 48.062 4.92616C48.158 5.02212 48.2379 5.19806 48.2699 5.42197L48.4299 6.71745C48.8137 6.06171 49.2615 5.53392 49.7733 5.16607C50.2851 4.79822 50.8609 4.5903 51.5006 4.5903C52.0284 4.5903 52.4603 4.71825 52.8121 4.95815L52.4763 6.87739C52.4603 7.00533 52.4123 7.0853 52.3483 7.14928C52.2843 7.19726 52.1884 7.22924 52.0604 7.22924C51.9645 7.22924 51.8205 7.19726 51.6286 7.14928C51.4367 7.1013 51.2128 7.0853 50.9089 7.0853C50.3811 7.0853 49.9173 7.22925 49.5334 7.53312C49.1496 7.82101 48.8297 8.25284 48.5738 8.82861V15.466H45.9988L46.0148 15.45Z" fill="#C8102E"/>
<path d="M57.6255 1.67918C57.6255 1.90309 57.5775 2.11101 57.4975 2.30293C57.4016 2.49486 57.2896 2.67079 57.1457 2.81473C57.0017 2.95867 56.8258 3.07063 56.6179 3.16659C56.41 3.24656 56.202 3.29454 55.9781 3.29454C55.7542 3.29454 55.5463 3.24656 55.3544 3.16659C55.1624 3.08662 54.9865 2.95867 54.8426 2.81473C54.6986 2.67079 54.5867 2.49486 54.4907 2.30293C54.4107 2.11101 54.3628 1.90309 54.3628 1.67918C54.3628 1.45527 54.4107 1.23136 54.4907 1.03944C54.5707 0.847516 54.6986 0.671584 54.8426 0.527641C54.9865 0.383699 55.1624 0.271744 55.3544 0.175783C55.5463 0.0958145 55.7542 0.0478338 55.9781 0.0478338C56.202 0.0478338 56.4259 0.0958145 56.6179 0.175783C56.8258 0.255751 57.0017 0.383699 57.1457 0.527641C57.2896 0.671584 57.4176 0.847516 57.4975 1.03944C57.5935 1.24736 57.6255 1.45527 57.6255 1.67918ZM57.2416 4.78195V15.4497H54.6666V4.78195H57.2416Z" fill="#C8102E"/>
<path d="M60.1369 15.4497V4.78199H61.7043C62.0401 4.78199 62.2481 4.94193 62.36 5.24581L62.5359 6.09347C62.7439 5.86956 62.9838 5.67763 63.2237 5.48571C63.4636 5.30978 63.7195 5.14985 63.9754 5.0219C64.2473 4.89395 64.5351 4.79799 64.839 4.71802C65.1429 4.65404 65.4788 4.62206 65.8306 4.62206C66.4064 4.62206 66.9342 4.71802 67.382 4.90994C67.8298 5.10187 68.2137 5.38975 68.5176 5.74161C68.8214 6.09347 69.0453 6.5253 69.2053 7.0211C69.3652 7.5169 69.4452 8.06069 69.4452 8.65245V15.4337H66.8702V8.65245C66.8702 7.99671 66.7263 7.50091 66.4224 7.13306C66.1185 6.7812 65.6707 6.60527 65.0629 6.60527C64.6151 6.60527 64.1993 6.70123 63.8154 6.90915C63.4316 7.10107 63.0637 7.38895 62.7119 7.72482V15.4337H60.1369V15.4497Z" fill="#C8102E"/>
<path d="M76.37 4.62206C77.0417 4.62206 77.6654 4.73401 78.2252 4.94193C78.785 5.14985 79.2808 5.46972 79.6806 5.88555C80.0805 6.30139 80.4164 6.79719 80.6403 7.40495C80.8642 8.0127 80.9761 8.68444 80.9761 9.45213C80.9761 9.64405 80.9761 9.80399 80.9441 9.93194C80.9281 10.0599 80.8962 10.1559 80.8482 10.2358C80.8002 10.3158 80.7362 10.3638 80.6722 10.3958C80.6083 10.4277 80.4963 10.4437 80.3844 10.4437H73.795C73.875 11.5313 74.1628 12.347 74.6746 12.8588C75.1864 13.3706 75.8742 13.6265 76.7058 13.6265C77.1217 13.6265 77.4735 13.5785 77.7774 13.4825C78.0813 13.3866 78.3372 13.2746 78.5611 13.1627C78.785 13.0507 78.9769 12.9387 79.1529 12.8428C79.3288 12.7468 79.4887 12.6988 79.6487 12.6988C79.7446 12.6988 79.8406 12.7148 79.9205 12.7628C80.0005 12.8108 80.0645 12.8588 80.1125 12.9387L80.8642 13.8664C80.5763 14.2022 80.2564 14.4741 79.9045 14.698C79.5527 14.9219 79.1848 15.0979 78.801 15.2418C78.4171 15.3698 78.0173 15.4657 77.6335 15.5297C77.2336 15.5777 76.8498 15.6097 76.4659 15.6097C75.7302 15.6097 75.0425 15.4817 74.4027 15.2418C73.763 15.0019 73.2032 14.6341 72.7394 14.1543C72.2756 13.6744 71.8917 13.0827 71.6199 12.363C71.348 11.6433 71.22 10.8276 71.22 9.89995C71.22 9.16424 71.332 8.49251 71.5719 7.85277C71.8118 7.21302 72.1476 6.65325 72.5795 6.17344C73.0273 5.69363 73.5551 5.32578 74.1948 5.03789C74.8346 4.75001 75.5383 4.62206 76.338 4.62206H76.37ZM76.4179 6.46132C75.6662 6.46132 75.0905 6.66924 74.6586 7.10107C74.2428 7.5169 73.9709 8.12466 73.843 8.89235H78.673C78.673 8.55649 78.6251 8.25261 78.5451 7.94873C78.4491 7.66085 78.3212 7.38895 78.1293 7.18104C77.9373 6.95713 77.7134 6.7812 77.4255 6.65325C77.1376 6.5253 76.8018 6.46132 76.4339 6.46132H76.4179Z" fill="#C8102E"/>
<path d="M94.1229 13.4026C94.7466 13.4026 95.3064 13.3386 95.7702 13.2266C96.2341 13.1147 96.6819 12.9548 97.0977 12.7468V10.0119H95.2104C95.0345 10.0119 94.8906 9.96395 94.7786 9.86799C94.6827 9.77202 94.6187 9.64408 94.6187 9.50013V7.91677H99.6247V13.9943C99.2408 14.2662 98.841 14.5061 98.4412 14.7141C98.0413 14.922 97.5935 15.0819 97.1137 15.2258C96.6339 15.3698 96.1381 15.4498 95.6103 15.5297C95.0825 15.5937 94.5067 15.6257 93.883 15.6257C92.7954 15.6257 91.7878 15.4338 90.8602 15.0499C89.9326 14.6661 89.1489 14.1383 88.4771 13.4506C87.8054 12.7788 87.2776 11.9632 86.9098 11.0195C86.5259 10.0759 86.35 9.05231 86.35 7.93276C86.35 6.81321 86.5259 5.77362 86.8938 4.83C87.2616 3.88637 87.7894 3.0707 88.4612 2.39897C89.1329 1.72723 89.9646 1.19944 90.9242 0.815598C91.8838 0.447744 92.9714 0.255823 94.1709 0.255823C95.3704 0.255823 96.458 0.43175 97.3536 0.799604C98.2493 1.16746 99.0169 1.63127 99.6407 2.22304L98.825 3.48653C98.6651 3.74243 98.4572 3.87038 98.1853 3.87038C98.0253 3.87038 97.8494 3.8224 97.6735 3.71045C97.4496 3.5825 97.2257 3.43855 96.9857 3.3106C96.7458 3.18266 96.4899 3.0707 96.2181 2.97474C95.9302 2.87878 95.6263 2.79881 95.2744 2.73483C94.9226 2.67086 94.5227 2.63887 94.0589 2.63887C93.3232 2.63887 92.6515 2.76682 92.0437 3.00672C91.452 3.26262 90.9402 3.61448 90.5083 4.0783C90.0925 4.54211 89.7566 5.10189 89.5327 5.75763C89.3088 6.41337 89.1969 7.13308 89.1969 7.94875C89.1969 8.81241 89.3248 9.5801 89.5647 10.2678C89.8046 10.9556 90.1405 11.5153 90.5883 11.9791C91.0361 12.443 91.5479 12.7948 92.1397 13.0507C92.7474 13.2906 93.4032 13.4186 94.1229 13.4186V13.4026Z" fill="#C8102E"/>
<path d="M101.495 14.0425C101.495 13.8346 101.543 13.6267 101.623 13.4347C101.703 13.2428 101.815 13.0829 101.959 12.9389C102.103 12.795 102.263 12.683 102.455 12.6031C102.647 12.5231 102.855 12.4751 103.079 12.4751C103.303 12.4751 103.495 12.5231 103.687 12.6031C103.879 12.683 104.038 12.795 104.182 12.9389C104.326 13.0829 104.438 13.2428 104.518 13.4347C104.598 13.6267 104.646 13.8346 104.646 14.0425C104.646 14.2504 104.598 14.4743 104.518 14.6662C104.438 14.8582 104.326 15.0181 104.182 15.162C104.038 15.306 103.879 15.4179 103.687 15.4979C103.495 15.5779 103.287 15.6099 103.079 15.6099C102.871 15.6099 102.647 15.5779 102.455 15.4979C102.263 15.4179 102.087 15.306 101.959 15.162C101.815 15.0181 101.703 14.8582 101.623 14.6662C101.543 14.4743 101.495 14.2664 101.495 14.0425Z" fill="#C8102E"/>
<path d="M118.817 9.91588C118.913 10.1558 119.009 10.3957 119.121 10.6356C119.217 10.3797 119.313 10.1398 119.425 9.89989C119.521 9.65998 119.633 9.42008 119.76 9.19617L124.207 0.863494C124.271 0.751539 124.319 0.671571 124.383 0.607597C124.447 0.543622 124.511 0.495641 124.575 0.479648C124.639 0.44766 124.734 0.431666 124.814 0.431666C124.91 0.431666 125.006 0.431666 125.134 0.431666H127.245V15.4657H124.782V5.75754C124.782 5.58161 124.782 5.3737 124.782 5.16578C124.782 4.95786 124.814 4.73395 124.83 4.51004L120.288 13.0346C120.192 13.2266 120.048 13.3865 119.888 13.4825C119.728 13.5944 119.521 13.6424 119.313 13.6424H118.929C118.705 13.6424 118.513 13.5944 118.353 13.4825C118.193 13.3705 118.049 13.2266 117.953 13.0346L113.347 4.47805C113.379 4.70196 113.395 4.92587 113.411 5.14978C113.411 5.3737 113.411 5.56562 113.411 5.75754V15.4657H110.948V0.431666H113.059C113.187 0.431666 113.299 0.431666 113.379 0.431666C113.475 0.431666 113.555 0.463654 113.619 0.479648C113.699 0.511635 113.763 0.543622 113.827 0.607597C113.891 0.671571 113.955 0.751539 114.003 0.863494L118.497 9.21216C118.609 9.43607 118.721 9.65998 118.833 9.89989L118.817 9.91588Z" fill="#C8102E"/>
<path d="M137.641 7.05328C137.561 7.14924 137.497 7.22921 137.417 7.27719C137.337 7.34117 137.242 7.35716 137.098 7.35716C136.954 7.35716 136.842 7.32517 136.714 7.2452C136.586 7.16524 136.442 7.06927 136.266 6.97331C136.09 6.87735 135.882 6.78139 135.642 6.70142C135.402 6.62145 135.114 6.57347 134.746 6.57347C134.299 6.57347 133.899 6.65344 133.563 6.81338C133.227 6.97331 132.939 7.21322 132.715 7.5171C132.491 7.82097 132.315 8.18883 132.204 8.62066C132.092 9.05248 132.044 9.54829 132.044 10.0921C132.044 10.6359 132.108 11.1636 132.219 11.6115C132.331 12.0593 132.523 12.4271 132.747 12.731C132.971 13.0349 133.259 13.2588 133.579 13.4187C133.899 13.5787 134.267 13.6586 134.683 13.6586C135.098 13.6586 135.418 13.6107 135.674 13.5147C135.93 13.4187 136.138 13.3068 136.314 13.1788C136.49 13.0509 136.634 12.9549 136.762 12.843C136.89 12.747 137.034 12.699 137.194 12.699C137.401 12.699 137.561 12.779 137.657 12.9389L138.393 13.8666C138.105 14.2024 137.801 14.4743 137.465 14.6982C137.13 14.9221 136.794 15.0981 136.426 15.242C136.074 15.37 135.706 15.4659 135.322 15.5299C134.938 15.5779 134.571 15.6099 134.187 15.6099C133.531 15.6099 132.907 15.4819 132.331 15.242C131.756 15.0021 131.244 14.6343 130.812 14.1704C130.38 13.7066 130.028 13.1149 129.788 12.4431C129.533 11.7554 129.405 10.9877 129.405 10.1081C129.405 9.32438 129.517 8.60466 129.74 7.93293C129.964 7.2612 130.3 6.68543 130.732 6.18962C131.164 5.70982 131.708 5.32597 132.347 5.03809C132.987 4.7502 133.739 4.62225 134.571 4.62225C135.402 4.62225 136.074 4.7502 136.666 5.0061C137.273 5.262 137.801 5.62985 138.281 6.10966L137.609 7.03729L137.641 7.05328Z" fill="#C8102E"/>
<path d="M147.11 13.4026C147.733 13.4026 148.293 13.3386 148.757 13.2266C149.221 13.1147 149.669 12.9548 150.084 12.7468V10.0119H148.197C148.021 10.0119 147.877 9.96395 147.765 9.86799C147.653 9.77202 147.605 9.64408 147.605 9.50013V7.91677H152.611V13.9943C152.228 14.2662 151.828 14.5061 151.428 14.7141C151.028 14.922 150.58 15.0819 150.1 15.2258C149.637 15.3538 149.125 15.4498 148.597 15.5297C148.069 15.5937 147.493 15.6257 146.87 15.6257C145.782 15.6257 144.775 15.4338 143.847 15.0499C142.919 14.6661 142.136 14.1383 141.464 13.4506C140.792 12.7788 140.264 11.9632 139.881 11.0195C139.497 10.0759 139.321 9.05231 139.321 7.93276C139.321 6.81321 139.513 5.77362 139.865 4.83C140.232 3.88637 140.76 3.0707 141.432 2.39897C142.104 1.72723 142.919 1.19944 143.895 0.815598C144.855 0.447744 145.942 0.255823 147.142 0.255823C148.341 0.255823 149.429 0.43175 150.324 0.799604C151.22 1.16746 151.988 1.63127 152.611 2.22304L151.796 3.48653C151.636 3.74243 151.428 3.87038 151.156 3.87038C150.996 3.87038 150.82 3.8224 150.644 3.71045C150.42 3.5825 150.196 3.43855 149.957 3.3106C149.733 3.18266 149.477 3.0707 149.189 2.97474C148.901 2.87878 148.597 2.79881 148.245 2.73483C147.893 2.67086 147.494 2.63887 147.03 2.63887C146.294 2.63887 145.622 2.76682 145.014 3.00672C144.407 3.24663 143.911 3.61448 143.479 4.0783C143.063 4.54211 142.727 5.10189 142.503 5.75763C142.28 6.41337 142.168 7.13308 142.168 7.94875C142.168 8.81241 142.296 9.5801 142.535 10.2678C142.775 10.9396 143.111 11.5153 143.559 11.9791C143.991 12.443 144.519 12.7948 145.11 13.0507C145.718 13.2906 146.374 13.4186 147.094 13.4186L147.11 13.4026Z" fill="#C8102E"/>
<path d="M159.65 4.62225C160.449 4.62225 161.169 4.7502 161.825 5.0061C162.48 5.262 163.024 5.62985 163.488 6.09366C163.952 6.55748 164.304 7.13325 164.544 7.82098C164.799 8.49271 164.911 9.2604 164.911 10.0921C164.911 10.9237 164.783 11.7074 164.544 12.3792C164.288 13.0509 163.936 13.6427 163.488 14.1065C163.024 14.5863 162.48 14.9541 161.825 15.21C161.169 15.4659 160.449 15.5939 159.65 15.5939C158.85 15.5939 158.13 15.4659 157.474 15.21C156.819 14.9541 156.275 14.5863 155.811 14.1065C155.347 13.6267 154.995 13.0509 154.739 12.3792C154.484 11.7074 154.356 10.9397 154.356 10.0921C154.356 9.24441 154.484 8.49271 154.739 7.82098C154.995 7.14924 155.347 6.57347 155.811 6.09366C156.275 5.61386 156.835 5.262 157.474 5.0061C158.114 4.7502 158.85 4.62225 159.65 4.62225ZM159.65 13.6267C160.529 13.6267 161.201 13.3228 161.617 12.731C162.049 12.1393 162.256 11.2596 162.256 10.1081C162.256 8.95652 162.049 8.07687 161.617 7.48511C161.185 6.87735 160.529 6.57347 159.65 6.57347C158.77 6.57347 158.082 6.87735 157.65 7.48511C157.219 8.09287 157.011 8.97252 157.011 10.1081C157.011 11.2436 157.219 12.1233 157.65 12.715C158.082 13.3068 158.738 13.6107 159.65 13.6107V13.6267Z" fill="#C8102E"/>
<path d="M171.916 15.4498H169.581L165.343 4.78202H167.47C167.662 4.78202 167.822 4.83 167.95 4.90997C168.078 5.00593 168.174 5.11788 168.222 5.24583L170.285 10.9396C170.397 11.2754 170.509 11.5953 170.589 11.9152C170.669 12.235 170.733 12.5549 170.797 12.8748C170.861 12.5549 170.925 12.235 171.005 11.9152C171.085 11.5953 171.181 11.2754 171.309 10.9396L173.42 5.24583C173.468 5.10189 173.548 4.98994 173.676 4.90997C173.804 4.81401 173.948 4.78202 174.124 4.78202H176.155L171.916 15.4498Z" fill="#C8102E"/>
<path d="M181.72 4.62225C182.391 4.62225 183.015 4.7342 183.575 4.94212C184.135 5.15004 184.63 5.46991 185.03 5.88575C185.43 6.30158 185.766 6.79738 185.99 7.40514C186.214 8.0129 186.326 8.68463 186.326 9.45232C186.326 9.64425 186.326 9.80418 186.294 9.93213C186.278 10.0601 186.246 10.156 186.198 10.236C186.15 10.316 186.086 10.364 186.022 10.3959C185.958 10.4279 185.846 10.4439 185.734 10.4439H179.145C179.225 11.5315 179.512 12.3472 180.024 12.859C180.536 13.3708 181.224 13.6267 182.055 13.6267C182.471 13.6267 182.823 13.5787 183.127 13.4827C183.431 13.3868 183.687 13.2748 183.911 13.1628C184.135 13.0509 184.326 12.9389 184.502 12.843C184.678 12.747 184.838 12.699 184.998 12.699C185.094 12.699 185.19 12.715 185.27 12.763C185.35 12.811 185.414 12.859 185.462 12.9389L186.214 13.8666C185.926 14.2024 185.606 14.4743 185.254 14.6982C184.902 14.9221 184.534 15.0981 184.151 15.242C183.767 15.37 183.367 15.4659 182.983 15.5299C182.583 15.5779 182.199 15.6099 181.831 15.6099C181.096 15.6099 180.408 15.4819 179.768 15.242C179.129 15.0021 178.569 14.6343 178.105 14.1544C177.641 13.6746 177.257 13.0829 176.985 12.3632C176.714 11.6434 176.586 10.8278 176.586 9.90014C176.586 9.16444 176.698 8.49271 176.937 7.85296C177.177 7.21322 177.513 6.65344 177.945 6.17363C178.377 5.69382 178.921 5.32597 179.56 5.03809C180.2 4.7502 180.904 4.62225 181.704 4.62225H181.72ZM181.768 6.46152C181.016 6.46152 180.44 6.66943 180.008 7.10126C179.592 7.5171 179.32 8.12485 179.193 8.89255H184.023C184.023 8.55668 183.975 8.2528 183.895 7.94892C183.815 7.64505 183.671 7.38915 183.479 7.18123C183.287 6.97331 183.063 6.78139 182.775 6.65344C182.487 6.52549 182.151 6.46152 181.783 6.46152H181.768Z" fill="#C8102E"/>
<path d="M188.421 4.78222H189.925C190.197 4.78222 190.373 4.8302 190.469 4.92616C190.565 5.02212 190.645 5.19806 190.677 5.42197L190.836 6.71745C191.22 6.06171 191.668 5.53392 192.18 5.16607C192.692 4.78222 193.268 4.5903 193.907 4.5903C194.435 4.5903 194.867 4.71825 195.219 4.95815L194.883 6.87739C194.867 7.00533 194.819 7.0853 194.755 7.14928C194.691 7.19726 194.595 7.22924 194.483 7.22924C194.371 7.22924 194.243 7.19726 194.051 7.14928C193.875 7.1013 193.635 7.0853 193.331 7.0853C192.804 7.0853 192.34 7.22925 191.956 7.53312C191.572 7.82101 191.252 8.25284 190.996 8.82861V15.466H188.421V4.78222Z" fill="#C8102E"/>
<path d="M196.931 15.4499V4.78219H198.498C198.834 4.78219 199.042 4.94212 199.154 5.246L199.33 6.09366C199.538 5.86975 199.778 5.67783 200.017 5.4859C200.257 5.30997 200.513 5.15004 200.769 5.02209C201.041 4.89414 201.329 4.79818 201.633 4.71821C201.937 4.65424 202.273 4.62225 202.624 4.62225C203.2 4.62225 203.728 4.71821 204.176 4.91014C204.624 5.10206 205.007 5.38994 205.311 5.7418C205.615 6.09366 205.839 6.52549 205.999 7.02129C206.159 7.5171 206.239 8.06088 206.239 8.65264V15.4339H203.664V8.65264C203.664 7.9969 203.52 7.5011 203.216 7.13325C202.912 6.78139 202.464 6.60546 201.857 6.60546C201.409 6.60546 200.993 6.70142 200.609 6.90934C200.225 7.10126 199.858 7.38914 199.506 7.72501V15.4339H196.931V15.4499Z" fill="#C8102E"/>
<path d="M11.2275 32.7067C11.3875 32.7067 11.5154 32.7706 11.6274 32.8826L12.7309 34.0821C12.1232 34.8338 11.3715 35.4096 10.4758 35.8254C9.58018 36.2253 8.5086 36.4332 7.2611 36.4332C6.14155 36.4332 5.13395 36.2413 4.2543 35.8574C3.37465 35.4736 2.60696 34.9458 1.96721 34.258C1.34346 33.5863 0.847661 32.7706 0.511795 31.827C0.175929 30.8834 0 29.8598 0 28.7402C0 27.6207 0.191921 26.5811 0.559774 25.6375C0.927627 24.6939 1.45542 23.8942 2.14315 23.2065C2.81488 22.5347 3.63055 22.0069 4.57417 21.6231C5.51779 21.2392 6.57338 21.0633 7.70892 21.0633C8.84447 21.0633 9.80408 21.2392 10.6358 21.5911C11.4674 21.943 12.1871 22.4228 12.7789 23.0145L11.8513 24.31C11.8033 24.39 11.7233 24.47 11.6434 24.5339C11.5634 24.5979 11.4354 24.6299 11.2915 24.6299C11.1475 24.6299 10.9716 24.5659 10.7957 24.438C10.6358 24.31 10.4118 24.1821 10.1559 24.0381C9.90005 23.8942 9.58017 23.7502 9.18033 23.6383C8.79649 23.5103 8.28469 23.4464 7.69293 23.4464C6.98921 23.4464 6.33347 23.5743 5.74171 23.8142C5.14995 24.0541 4.63814 24.406 4.20632 24.8698C3.77449 25.3336 3.45462 25.8774 3.21471 26.5331C2.97481 27.1889 2.86285 27.9246 2.86285 28.7402C2.86285 29.5559 2.97481 30.3396 3.21471 30.9953C3.45462 31.6511 3.77449 32.2109 4.19033 32.6587C4.60616 33.1065 5.08597 33.4584 5.62975 33.6983C6.18953 33.9382 6.78129 34.0501 7.42104 34.0501C7.80488 34.0501 8.14075 34.0341 8.46062 33.9862C8.7645 33.9382 9.05239 33.8742 9.30829 33.7942C9.56418 33.6983 9.82008 33.5863 10.044 33.4424C10.2839 33.2984 10.5078 33.1225 10.7317 32.9146C10.7957 32.8506 10.8757 32.8026 10.9556 32.7706C11.0356 32.7387 11.1156 32.7067 11.2115 32.7067H11.2275Z" fill="#C8102E"/>
<path d="M19.2414 25.4137C20.0411 25.4137 20.7608 25.5416 21.4005 25.7975C22.0403 26.0534 22.6001 26.4213 23.0639 26.8851C23.5277 27.3489 23.8795 27.9247 24.1195 28.6124C24.3754 29.2841 24.4873 30.0518 24.4873 30.8835C24.4873 31.7152 24.3594 32.4988 24.1195 33.1706C23.8636 33.8423 23.5117 34.4341 23.0639 34.8979C22.6001 35.3777 22.0563 35.7455 21.4005 36.0014C20.7448 36.2573 20.0251 36.3853 19.2414 36.3853C18.4577 36.3853 17.722 36.2573 17.0663 36.0014C16.4105 35.7455 15.8508 35.3777 15.4029 34.8979C14.9551 34.4181 14.5873 33.8423 14.3314 33.1706C14.0755 32.4988 13.9475 31.7311 13.9475 30.8835C13.9475 30.0358 14.0755 29.2841 14.3314 28.6124C14.5873 27.9407 14.9391 27.3649 15.4029 26.8851C15.8667 26.4053 16.4265 26.0534 17.0663 25.7975C17.722 25.5416 18.4417 25.4137 19.2414 25.4137ZM19.2414 34.4181C20.121 34.4181 20.7928 34.1142 21.2086 33.5224C21.6404 32.9307 21.8484 32.051 21.8484 30.8995C21.8484 29.7479 21.6404 28.8683 21.2086 28.2765C20.7768 27.6688 20.121 27.3649 19.2414 27.3649C18.3617 27.3649 17.674 27.6688 17.2422 28.2765C16.8104 28.8843 16.6025 29.7639 16.6025 30.8995C16.6025 32.035 16.8104 32.9147 17.2422 33.5064C17.674 34.0982 18.3298 34.4021 19.2414 34.4021V34.4181Z" fill="#C8102E"/>
<path d="M29.2377 20.7914V36.2412H26.6628V20.7914H29.2377Z" fill="#C8102E"/>
<path d="M34.867 20.7914V36.2412H32.292V20.7914H34.867Z" fill="#C8102E"/>
<path d="M42.1754 25.4135C42.8471 25.4135 43.4709 25.5254 44.0307 25.7333C44.5904 25.9413 45.0862 26.2611 45.4861 26.677C45.8859 27.0928 46.2218 27.5886 46.4457 28.1964C46.6696 28.8041 46.7816 29.4759 46.7816 30.2435C46.7816 30.4355 46.7816 30.5954 46.7496 30.7234C46.7336 30.8513 46.7016 30.9473 46.6536 31.0272C46.6056 31.1072 46.5417 31.1552 46.4777 31.1872C46.4137 31.2192 46.3018 31.2351 46.1898 31.2351H39.6004C39.6804 32.3227 39.9683 33.1384 40.4801 33.6502C40.9919 34.162 41.6796 34.4179 42.5113 34.4179C42.9271 34.4179 43.279 34.3699 43.5828 34.2739C43.8867 34.178 44.1426 34.066 44.3665 33.9541C44.5904 33.8421 44.7824 33.7302 44.9583 33.6342C45.1342 33.5382 45.2942 33.4902 45.4541 33.4902C45.5501 33.4902 45.646 33.5062 45.726 33.5542C45.806 33.6022 45.8699 33.6502 45.9179 33.7302L46.6696 34.6578C46.3817 34.9936 46.0619 35.2655 45.71 35.4895C45.3581 35.7134 44.9903 35.8893 44.6064 36.0332C44.2226 36.1612 43.8227 36.2571 43.4389 36.3211C43.0391 36.3691 42.6552 36.4011 42.2714 36.4011C41.5357 36.4011 40.8479 36.2731 40.2082 36.0332C39.5684 35.7933 39.0087 35.4255 38.5449 34.9457C38.081 34.4659 37.6972 33.8741 37.4253 33.1544C37.1534 32.4347 37.0255 31.619 37.0255 30.6914C37.0255 29.9557 37.1374 29.2839 37.3773 28.6442C37.6172 28.0044 37.9531 27.4447 38.3849 26.9649C38.8327 26.485 39.3605 26.1172 40.0003 25.8293C40.64 25.5414 41.3437 25.4135 42.1434 25.4135H42.1754ZM42.2234 27.2527C41.4717 27.2527 40.8959 27.4607 40.4641 27.8925C40.0483 28.3083 39.7764 28.9161 39.6484 29.6838H44.4785C44.4785 29.3479 44.4305 29.044 44.3505 28.7401C44.2546 28.4523 44.1266 28.1804 43.9347 27.9725C43.7428 27.7485 43.5189 27.5726 43.231 27.4447C42.9431 27.3167 42.6072 27.2527 42.2394 27.2527H42.2234Z" fill="#C8102E"/>
<path d="M52.5716 25.3979C53.0354 25.3979 53.4512 25.4459 53.8671 25.5418C54.2669 25.6378 54.6348 25.7658 54.9706 25.9577H58.0414V26.9173C58.0414 27.0772 57.9934 27.2052 57.9135 27.2851C57.8335 27.3811 57.6896 27.4451 57.4816 27.4771L56.522 27.653C56.586 27.8289 56.65 28.0209 56.682 28.2288C56.7139 28.4367 56.7459 28.6446 56.7459 28.8685C56.7459 29.3963 56.634 29.8761 56.426 30.2919C56.2181 30.7078 55.9303 31.0756 55.5464 31.3795C55.1786 31.6834 54.7307 31.9073 54.2189 32.0672C53.7071 32.2272 53.1634 32.3071 52.5556 32.3071C52.1558 32.3071 51.7559 32.2752 51.3881 32.1952C51.0522 32.4031 50.8923 32.627 50.8923 32.8829C50.8923 33.0908 50.9882 33.2508 51.1961 33.3627C51.3881 33.4587 51.66 33.5387 51.9798 33.5706C52.2997 33.6186 52.6676 33.6346 53.0834 33.6346C53.4992 33.6346 53.9151 33.6506 54.3469 33.6826C54.7787 33.7146 55.1945 33.7786 55.6104 33.8585C56.0262 33.9385 56.3781 34.0824 56.7139 34.2744C57.0338 34.4663 57.2897 34.7222 57.4976 35.0421C57.7055 35.3619 57.8015 35.7778 57.8015 36.2896C57.8015 36.7694 57.6896 37.2172 57.4497 37.665C57.2097 38.1128 56.8739 38.5127 56.442 38.8485C56.0102 39.2004 55.4664 39.4723 54.8267 39.6802C54.1869 39.8881 53.4672 40.0001 52.6516 40.0001C51.8359 40.0001 51.1322 39.9201 50.5404 39.7602C49.9486 39.6002 49.4528 39.3923 49.053 39.1364C48.6532 38.8805 48.3653 38.5766 48.1733 38.2408C47.9814 37.9049 47.8855 37.5531 47.8855 37.1852C47.8855 36.6894 48.0454 36.2736 48.3493 35.9217C48.6532 35.5858 49.085 35.3139 49.6128 35.106C49.3409 34.9621 49.133 34.7702 48.973 34.5303C48.8131 34.2904 48.7331 33.9705 48.7331 33.5866C48.7331 33.4267 48.7651 33.2668 48.8131 33.0908C48.8611 32.9149 48.957 32.755 49.069 32.579C49.1809 32.4191 49.3249 32.2592 49.5008 32.0992C49.6768 31.9553 49.8847 31.8113 50.1086 31.6994C49.5648 31.4115 49.149 31.0277 48.8291 30.5319C48.5252 30.052 48.3653 29.4763 48.3653 28.8205C48.3653 28.2927 48.4772 27.8129 48.6851 27.3971C48.8931 26.9813 49.1969 26.6134 49.5648 26.3095C49.9486 26.0057 50.3965 25.7817 50.9083 25.6218C51.4201 25.4619 51.9798 25.3819 52.6036 25.3819L52.5716 25.3979ZM55.3865 36.7054C55.3865 36.4975 55.3225 36.3215 55.1945 36.1776C55.0666 36.0337 54.9067 35.9377 54.6828 35.8577C54.4748 35.7778 54.2189 35.7298 53.931 35.6978C53.6432 35.6658 53.3393 35.6498 53.0194 35.6498H52.0278C51.6919 35.6498 51.3561 35.6178 51.0362 35.5379C50.7483 35.6978 50.5084 35.8897 50.3325 36.0976C50.1566 36.3215 50.0606 36.5614 50.0606 36.8493C50.0606 37.0413 50.1086 37.2172 50.2045 37.3771C50.3005 37.5371 50.4445 37.681 50.6524 37.793C50.8603 37.9049 51.1162 38.0009 51.452 38.0648C51.7879 38.1288 52.1718 38.1608 52.6516 38.1608C53.1314 38.1608 53.5472 38.1288 53.8831 38.0489C54.2349 37.9689 54.5228 37.8729 54.7467 37.745C54.9706 37.617 55.1306 37.4571 55.2425 37.2812C55.3385 37.1052 55.4025 36.8973 55.4025 36.6894L55.3865 36.7054ZM52.5716 30.6598C52.8915 30.6598 53.1634 30.6118 53.4033 30.5319C53.6432 30.4519 53.8351 30.3239 53.995 30.18C54.155 30.0361 54.2669 29.8441 54.3469 29.6362C54.4269 29.4283 54.4588 29.1884 54.4588 28.9325C54.4588 28.4047 54.2989 27.9889 53.979 27.685C53.6592 27.3811 53.1953 27.2212 52.5556 27.2212C51.9159 27.2212 51.452 27.3811 51.1322 27.685C50.8123 27.9889 50.6524 28.4047 50.6524 28.9325C50.6524 29.1884 50.6844 29.4123 50.7643 29.6362C50.8443 29.8441 50.9562 30.036 51.1162 30.196C51.2761 30.3559 51.468 30.4679 51.7079 30.5638C51.9478 30.6438 52.2197 30.6918 52.5396 30.6918L52.5716 30.6598Z" fill="#C8102E"/>
<path d="M64.0546 25.4137C64.7263 25.4137 65.3501 25.5256 65.9099 25.7335C66.4696 25.9415 66.9654 26.2613 67.3653 26.6772C67.7651 27.093 68.101 27.5888 68.3249 28.1966C68.5488 28.8043 68.6608 29.476 68.6608 30.2437C68.6608 30.4357 68.6608 30.5956 68.6288 30.7235C68.6128 30.8515 68.5808 30.9475 68.5328 31.0274C68.4848 31.1074 68.4209 31.1554 68.3569 31.1874C68.2929 31.2194 68.181 31.2353 68.069 31.2353H61.4796C61.5596 32.3229 61.8475 33.1386 62.3593 33.6504C62.8711 34.1622 63.5588 34.4181 64.3905 34.4181C64.8063 34.4181 65.1582 34.3701 65.462 34.2741C65.7659 34.1782 66.0218 34.0662 66.2457 33.9543C66.4696 33.8423 66.6616 33.7304 66.8375 33.6344C67.0134 33.5384 67.1734 33.4904 67.3333 33.4904C67.4293 33.4904 67.5252 33.5064 67.6052 33.5544C67.6852 33.6024 67.7491 33.6504 67.7971 33.7304L68.5488 34.658C68.2609 34.9938 67.941 35.2657 67.5892 35.4896C67.2373 35.7136 66.8695 35.8895 66.4856 36.0334C66.1018 36.1614 65.702 36.2573 65.3181 36.3213C64.9183 36.3693 64.5344 36.4013 64.1506 36.4013C63.4149 36.4013 62.7271 36.2733 62.0874 36.0334C61.4476 35.7935 60.8879 35.4257 60.424 34.9459C59.9602 34.4661 59.5764 33.8743 59.3045 33.1546C59.0326 32.4349 58.9047 31.6192 58.9047 30.6916C58.9047 29.9559 59.0166 29.2841 59.2565 28.6444C59.4964 28.0046 59.8323 27.4449 60.2641 26.9651C60.7119 26.4852 61.2397 26.1174 61.8795 25.8295C62.5192 25.5416 63.2229 25.4137 64.0226 25.4137H64.0546ZM64.1026 27.2529C63.3509 27.2529 62.7751 27.4608 62.3433 27.8927C61.9275 28.3085 61.6556 28.9163 61.5276 29.684H66.3577C66.3577 29.3481 66.3097 29.0442 66.2297 28.7403C66.1338 28.4525 66.0058 28.1806 65.8139 27.9726C65.622 27.7487 65.3981 27.5728 65.1102 27.4449C64.8223 27.3169 64.4864 27.2529 64.1186 27.2529H64.1026Z" fill="#C8102E"/>
<path d="M79.3282 25.4137C80.1278 25.4137 80.8475 25.5416 81.4873 25.7975C82.127 26.0534 82.6868 26.4213 83.1506 26.8851C83.6144 27.3489 83.9663 27.9247 84.2062 28.6124C84.4621 29.2841 84.5741 30.0518 84.5741 30.8835C84.5741 31.7152 84.4461 32.4988 84.2062 33.1706C83.9503 33.8423 83.5984 34.4341 83.1506 34.8979C82.6868 35.3777 82.143 35.7455 81.4873 36.0014C80.8316 36.2573 80.1118 36.3853 79.3282 36.3853C78.5445 36.3853 77.8088 36.2573 77.153 36.0014C76.4973 35.7455 75.9375 35.3777 75.4897 34.8979C75.0419 34.4181 74.674 33.8423 74.4181 33.1706C74.1622 32.4988 74.0343 31.7311 74.0343 30.8835C74.0343 30.0358 74.1622 29.2841 74.4181 28.6124C74.674 27.9407 75.0259 27.3649 75.4897 26.8851C75.9535 26.4053 76.5133 26.0534 77.153 25.7975C77.8088 25.5416 78.5285 25.4137 79.3282 25.4137ZM79.3282 34.4181C80.2078 34.4181 80.8795 34.1142 81.2954 33.5224C81.7272 32.9307 81.9351 32.051 81.9351 30.8995C81.9351 29.7479 81.7272 28.8683 81.2954 28.2765C80.8635 27.6688 80.2078 27.3649 79.3282 27.3649C78.4485 27.3649 77.7608 27.6688 77.3289 28.2765C76.8971 28.8843 76.6892 29.7639 76.6892 30.8995C76.6892 32.035 76.8971 32.9147 77.3289 33.5064C77.7608 34.0982 78.4165 34.4021 79.3282 34.4021V34.4181Z" fill="#C8102E"/>
<path d="M87.0538 36.2415V27.509L86.1261 27.365C85.9182 27.333 85.7583 27.2531 85.6463 27.1571C85.5184 27.0451 85.4704 26.9012 85.4704 26.7253V25.6697H87.0538V24.886C87.0538 24.2782 87.1497 23.7345 87.3257 23.2387C87.5016 22.7589 87.7735 22.343 88.1093 22.0072C88.4452 21.6713 88.877 21.3994 89.3568 21.2235C89.8527 21.0475 90.3964 20.9516 91.0202 20.9516C91.516 20.9516 91.9638 21.0155 92.3956 21.1435L92.3477 22.439C92.3477 22.6469 92.2357 22.7589 92.0598 22.8068C91.8839 22.8548 91.6919 22.8708 91.452 22.8708C91.1481 22.8708 90.8763 22.9028 90.6363 22.9668C90.3964 23.0307 90.1885 23.1427 90.0286 23.3026C89.8686 23.4626 89.7407 23.6865 89.6447 23.9424C89.5488 24.1983 89.5168 24.5341 89.5168 24.934V25.6377H92.2997V27.461H89.6127V36.2095H87.0378L87.0538 36.2415Z" fill="#C8102E"/>
<path d="M101.4 36.4173C100.472 36.4173 99.7684 36.1614 99.2726 35.6336C98.7768 35.1058 98.5209 34.3861 98.5209 33.4585V27.5089H97.4333C97.2894 27.5089 97.1774 27.4609 97.0815 27.3809C96.9855 27.301 96.9375 27.157 96.9375 26.9811V25.9575L98.6488 25.6696L99.1926 22.7588C99.2246 22.6148 99.2886 22.5189 99.3845 22.4389C99.4805 22.3589 99.6085 22.3269 99.7684 22.3269H101.096V25.6856H103.895V27.5089H101.096V33.2826C101.096 33.6184 101.176 33.8743 101.352 34.0663C101.512 34.2582 101.736 34.3541 102.023 34.3541C102.183 34.3541 102.311 34.3381 102.423 34.2902C102.535 34.2582 102.615 34.2102 102.695 34.1622C102.775 34.1142 102.839 34.0822 102.903 34.0503C102.967 34.0183 103.031 33.9863 103.095 33.9863C103.175 33.9863 103.239 34.0023 103.287 34.0503C103.335 34.0822 103.383 34.1462 103.447 34.2262L104.215 35.4737C103.847 35.7936 103.415 36.0175 102.919 36.1774C102.439 36.3373 101.928 36.4173 101.416 36.4173H101.4Z" fill="#C8102E"/>
<path d="M105.942 36.2412V20.7914H108.517V26.725C108.933 26.3252 109.397 26.0053 109.892 25.7654C110.388 25.5255 110.98 25.3976 111.652 25.3976C112.227 25.3976 112.755 25.4935 113.203 25.6855C113.651 25.8774 114.035 26.1653 114.339 26.5171C114.642 26.869 114.866 27.3008 115.026 27.7966C115.186 28.2924 115.266 28.8362 115.266 29.428V36.2093H112.691V29.428C112.691 28.7722 112.547 28.2764 112.243 27.9086C111.939 27.5567 111.492 27.3808 110.884 27.3808C110.436 27.3808 110.02 27.4767 109.636 27.6847C109.253 27.8766 108.885 28.1645 108.533 28.5003V36.2093H105.958L105.942 36.2412Z" fill="#C8102E"/>
<path d="M122.16 25.4137C122.832 25.4137 123.456 25.5256 124.016 25.7335C124.575 25.9415 125.071 26.2613 125.471 26.6772C125.871 27.093 126.207 27.5888 126.431 28.1966C126.655 28.8043 126.766 29.476 126.766 30.2437C126.766 30.4357 126.766 30.5956 126.734 30.7235C126.718 30.8515 126.687 30.9475 126.639 31.0274C126.591 31.1074 126.527 31.1554 126.463 31.1874C126.399 31.2194 126.287 31.2353 126.175 31.2353H119.585C119.665 32.3229 119.953 33.1386 120.465 33.6504C120.977 34.1622 121.665 34.4181 122.496 34.4181C122.912 34.4181 123.264 34.3701 123.568 34.2741C123.872 34.1782 124.128 34.0662 124.351 33.9543C124.575 33.8423 124.767 33.7304 124.943 33.6344C125.119 33.5384 125.279 33.4904 125.439 33.4904C125.535 33.4904 125.631 33.5064 125.711 33.5544C125.791 33.6024 125.855 33.6504 125.903 33.7304L126.655 34.658C126.367 34.9938 126.047 35.2657 125.695 35.4896C125.343 35.7136 124.975 35.8895 124.591 36.0334C124.208 36.1614 123.808 36.2573 123.424 36.3213C123.024 36.3693 122.64 36.4013 122.272 36.4013C121.537 36.4013 120.849 36.2733 120.209 36.0334C119.569 35.7935 119.01 35.4257 118.546 34.9459C118.082 34.4661 117.698 33.8743 117.426 33.1546C117.154 32.4349 117.026 31.6192 117.026 30.6916C117.026 29.9559 117.138 29.2841 117.378 28.6444C117.618 28.0046 117.954 27.4449 118.386 26.9651C118.818 26.4852 119.361 26.1174 120.001 25.8295C120.641 25.5416 121.345 25.4137 122.144 25.4137H122.16ZM122.208 27.2529C121.457 27.2529 120.881 27.4608 120.449 27.8927C120.033 28.3085 119.761 28.9163 119.633 29.684H124.463C124.463 29.3481 124.415 29.0442 124.335 28.7403C124.255 28.4365 124.112 28.1806 123.92 27.9726C123.728 27.7647 123.504 27.5728 123.216 27.4449C122.928 27.3169 122.592 27.2529 122.224 27.2529H122.208Z" fill="#C8102E"/>
<path d="M144.087 36.2416C143.847 36.2416 143.639 36.1776 143.495 36.0657C143.335 35.9377 143.223 35.7938 143.159 35.6178L142.04 32.5471H135.818L134.698 35.6178C134.634 35.7778 134.539 35.9217 134.363 36.0497C134.187 36.1776 133.995 36.2416 133.771 36.2416H131.596L137.497 21.2076H140.36L146.262 36.2416H144.087ZM136.522 30.5639H141.32L139.497 25.5579C139.417 25.3339 139.321 25.078 139.225 24.7742C139.129 24.4703 139.033 24.1504 138.937 23.7986C138.841 24.1504 138.745 24.4863 138.649 24.7902C138.553 25.094 138.457 25.3659 138.377 25.5898L136.554 30.5639H136.522Z" fill="#C8102E"/>
<path d="M147.639 36.2416V25.5738H149.142C149.414 25.5738 149.59 25.6218 149.686 25.7178C149.798 25.8137 149.862 25.9897 149.894 26.2136L150.054 27.5091C150.437 26.8533 150.885 26.3255 151.397 25.9577C151.909 25.5738 152.485 25.3819 153.124 25.3819C153.652 25.3819 154.084 25.5099 154.436 25.7498L154.1 27.669C154.084 27.7969 154.036 27.8769 153.972 27.9409C153.908 27.9889 153.812 28.0209 153.684 28.0209C153.588 28.0209 153.444 27.9889 153.252 27.9409C153.076 27.8929 152.836 27.8769 152.533 27.8769C152.005 27.8769 151.541 28.0209 151.157 28.3247C150.773 28.6126 150.453 29.0444 150.197 29.6202V36.2576H147.623L147.639 36.2416Z" fill="#C8102E"/>
<path d="M159.649 36.4173C158.721 36.4173 158.017 36.1614 157.522 35.6336C157.026 35.1058 156.77 34.3861 156.77 33.4585V27.5089H155.682C155.538 27.5089 155.426 27.4609 155.33 27.3809C155.234 27.285 155.186 27.157 155.186 26.9811V25.9575L156.898 25.6696L157.442 22.7588C157.474 22.6148 157.538 22.5189 157.633 22.4389C157.729 22.3589 157.857 22.3269 158.017 22.3269H159.345V25.6856H162.144V27.5089H159.345V33.2826C159.345 33.6184 159.425 33.8743 159.601 34.0663C159.761 34.2582 159.985 34.3541 160.272 34.3541C160.432 34.3541 160.56 34.3381 160.672 34.2902C160.784 34.2582 160.864 34.2102 160.944 34.1622C161.024 34.1142 161.088 34.0822 161.152 34.0503C161.216 34.0183 161.28 33.9863 161.344 33.9863C161.424 33.9863 161.488 34.0023 161.536 34.0503C161.584 34.0822 161.632 34.1462 161.696 34.2262L162.464 35.4737C162.096 35.7936 161.664 36.0175 161.168 36.1774C160.688 36.3373 160.176 36.4173 159.665 36.4173H159.649Z" fill="#C8102E"/>
<path d="M170.508 27.6526C170.444 27.7645 170.364 27.8445 170.284 27.8925C170.204 27.9405 170.108 27.9565 169.996 27.9565C169.868 27.9565 169.741 27.9245 169.597 27.8605C169.453 27.7965 169.293 27.7166 169.101 27.6206C168.909 27.5406 168.701 27.4607 168.461 27.3807C168.221 27.3167 167.933 27.2847 167.613 27.2847C167.102 27.2847 166.702 27.3967 166.414 27.6046C166.126 27.8125 165.982 28.1004 165.982 28.4523C165.982 28.6762 166.062 28.8681 166.206 29.028C166.35 29.188 166.558 29.3159 166.798 29.4439C167.038 29.5558 167.325 29.6678 167.629 29.7637C167.949 29.8597 168.253 29.9557 168.589 30.0676C168.909 30.1796 169.229 30.3075 169.549 30.4515C169.868 30.5954 170.14 30.7713 170.38 30.9952C170.62 31.2192 170.828 31.4751 170.972 31.7789C171.116 32.0828 171.196 32.4507 171.196 32.8825C171.196 33.3943 171.1 33.8741 170.924 34.3059C170.732 34.7378 170.46 35.1056 170.108 35.4255C169.741 35.7453 169.309 35.9853 168.765 36.1612C168.237 36.3371 167.629 36.4331 166.942 36.4331C166.574 36.4331 166.222 36.4011 165.87 36.3371C165.518 36.2731 165.182 36.1772 164.862 36.0652C164.543 35.9533 164.239 35.8093 163.967 35.6494C163.695 35.4894 163.455 35.3135 163.247 35.1216L163.839 34.146C163.919 34.034 163.999 33.9381 164.111 33.8741C164.223 33.8101 164.351 33.7781 164.511 33.7781C164.671 33.7781 164.814 33.8261 164.958 33.9061C165.102 33.9861 165.262 34.098 165.454 34.194C165.646 34.3059 165.854 34.4019 166.11 34.4818C166.366 34.5778 166.686 34.6098 167.07 34.6098C167.373 34.6098 167.629 34.5778 167.853 34.4978C168.077 34.4339 168.253 34.3379 168.397 34.21C168.541 34.098 168.637 33.9541 168.717 33.7941C168.781 33.6342 168.813 33.4743 168.813 33.3143C168.813 33.0584 168.733 32.8665 168.589 32.7066C168.445 32.5466 168.237 32.4027 167.997 32.2907C167.757 32.1788 167.469 32.0668 167.15 31.9709C166.83 31.8749 166.51 31.7789 166.19 31.667C165.87 31.555 165.534 31.4271 165.23 31.2831C164.926 31.1392 164.639 30.9473 164.383 30.7234C164.143 30.4994 163.935 30.2116 163.791 29.8757C163.647 29.5398 163.567 29.14 163.567 28.6762C163.567 28.2443 163.647 27.8285 163.823 27.4287C163.999 27.0288 164.255 26.693 164.591 26.3891C164.926 26.0852 165.342 25.8613 165.854 25.6854C166.35 25.5094 166.942 25.4135 167.597 25.4135C168.333 25.4135 169.005 25.5414 169.597 25.7813C170.204 26.0212 170.7 26.3411 171.1 26.7409L170.524 27.6686L170.508 27.6526Z" fill="#C8102E"/>
</g>
</svg>
