<svg xmlns="http://www.w3.org/2000/svg" width="53.511" height="71.129" viewBox="0 0 53.511 71.129">
  <path id="award-solid" d="M23.986.782a4.561,4.561,0,0,1,5.033,0L31.48,2.4a4.613,4.613,0,0,0,2.779.747l2.945-.18a4.566,4.566,0,0,1,4.355,2.516l1.327,2.641a4.587,4.587,0,0,0,2.033,2.032L47.588,11.5A4.566,4.566,0,0,1,50.1,15.853l-.18,2.945a4.588,4.588,0,0,0,.747,2.779L52.3,24.038a4.561,4.561,0,0,1,0,5.033l-1.632,2.475a4.613,4.613,0,0,0-.747,2.779l.18,2.945a4.566,4.566,0,0,1-2.516,4.355l-2.641,1.327a4.587,4.587,0,0,0-2.032,2.032l-1.341,2.669a4.566,4.566,0,0,1-4.355,2.516l-2.945-.18a4.588,4.588,0,0,0-2.779.747l-2.461,1.632a4.561,4.561,0,0,1-5.033,0l-2.475-1.632a4.613,4.613,0,0,0-2.779-.747l-2.945.18a4.566,4.566,0,0,1-4.355-2.516l-1.327-2.641a4.587,4.587,0,0,0-2.032-2.032L5.417,41.639A4.566,4.566,0,0,1,2.9,37.284l.18-2.945a4.588,4.588,0,0,0-.747-2.779L.716,29.085a4.561,4.561,0,0,1,0-5.033l1.618-2.461a4.613,4.613,0,0,0,.747-2.779L2.9,15.867a4.566,4.566,0,0,1,2.516-4.355l2.641-1.327A4.678,4.678,0,0,0,10.1,8.124l1.327-2.641a4.566,4.566,0,0,1,4.355-2.516l2.945.18A4.588,4.588,0,0,0,21.511,2.4ZM37.564,26.568A11.061,11.061,0,1,0,26.5,37.63,11.061,11.061,0,0,0,37.564,26.568ZM.135,61.107,6.094,46.935a.108.108,0,0,1,.055.055l1.327,2.641a9.017,9.017,0,0,0,8.572,4.95l2.945-.18a.132.132,0,0,1,.1.028l2.461,1.632a9.4,9.4,0,0,0,2.226,1.065l-5.2,12.347a2.208,2.208,0,0,1-3.885.346L10.242,63,2.486,64.149a2.258,2.258,0,0,1-2.074-.83,2.2,2.2,0,0,1-.29-2.212Zm34.29,8.351-5.2-12.333a8.89,8.89,0,0,0,2.226-1.065l2.461-1.632a.2.2,0,0,1,.1-.028l2.945.18a9.017,9.017,0,0,0,8.572-4.95l1.327-2.641a.108.108,0,0,1,.055-.055l5.973,14.172a2.239,2.239,0,0,1-.29,2.212,2.184,2.184,0,0,1-2.074.83L42.762,63,38.31,69.8a2.208,2.208,0,0,1-3.885-.346Z" transform="translate(0.246 0.18)" fill="#c8102e" stroke="#640817" stroke-width="0.25"/>
</svg>
