<?xml version="1.0" encoding="UTF-8"?><svg id="Horizontal-reverse-red_outline" xmlns="http://www.w3.org/2000/svg" viewBox="0 0 279.8 56.89"><defs><style>.cls-1{fill:#fff;}.cls-2{fill:#c8102e;}</style></defs><g><polygon class="cls-1" points="59.36 30.23 59.36 19.22 43.27 19.22 43.27 11.13 46.62 11.13 46.62 .12 25.92 .12 25.92 11.13 29.04 11.13 29.04 19.22 17.58 19.22 17.58 11.13 20.71 11.13 20.71 .12 0 .12 0 11.13 3.35 11.13 3.35 31.24 9.79 36.78 16.31 36.78 16.31 45.56 12.96 45.56 12.96 56.57 33.67 56.57 33.67 45.56 30.54 45.56 30.54 43.53 41.77 43.53 41.77 45.56 38.65 45.56 38.65 56.57 59.36 56.57 59.36 45.56 56 45.56 56 30.23 59.36 30.23"/><path class="cls-2" d="M57.79,28.67v-7.88h-16.09V9.56h3.35V1.69H27.48v7.88h3.12v11.22h-14.59V9.56h3.13V1.69H1.57v7.88h3.35V30.52l5.46,4.7h7.5v11.92h-3.35v7.87h17.58v-7.87h-3.13v-5.16h14.37v5.16h-3.12v7.87h17.57v-7.87h-3.35V28.67h3.35Zm-19.44,4.96l4.89-4.34v4.34h-4.89Z"/><polygon class="cls-1" points="32.1 28.66 28.97 28.66 28.97 33.72 35.84 33.72 40.22 29.83 40.22 8.08 43.57 8.08 43.57 3.17 28.97 3.17 28.97 8.08 32.1 8.08 32.1 28.66"/><polygon class="cls-1" points="17.88 28.66 14.53 28.66 14.53 8.08 17.65 8.08 17.65 3.17 3.06 3.17 3.06 8.08 6.41 8.08 6.41 29.83 10.93 33.72 17.88 33.72 17.88 28.66"/><polygon class="cls-1" points="56.3 27.18 56.3 22.28 41.7 22.28 41.7 27.18 44.83 27.18 44.83 35.21 27.48 35.21 27.48 27.18 30.61 27.18 30.61 22.28 16.01 22.28 16.01 27.18 19.36 27.18 19.36 48.62 16.01 48.62 16.01 53.52 30.61 53.52 30.61 48.62 27.48 48.62 27.48 40.48 44.83 40.48 44.83 48.62 41.7 48.62 41.7 53.52 56.3 53.52 56.3 48.62 52.95 48.62 52.95 27.18 56.3 27.18"/></g><g><path class="cls-1" d="M81.6,16.72c.77,0,1.45-.13,2.05-.39s1.11-.62,1.53-1.09c.42-.46,.74-1.02,.95-1.67,.22-.65,.33-1.36,.33-2.13V.21h2.49V11.46c0,1.07-.17,2.06-.51,2.97-.34,.91-.83,1.7-1.46,2.37-.63,.67-1.4,1.19-2.32,1.57-.91,.38-1.94,.57-3.07,.57s-2.16-.19-3.07-.57c-.91-.38-1.69-.9-2.32-1.57-.64-.67-1.13-1.46-1.47-2.37-.34-.91-.51-1.9-.51-2.97V.21h2.49V11.44c0,.77,.11,1.49,.33,2.13,.22,.65,.54,1.2,.95,1.67,.42,.47,.93,.83,1.54,1.09,.61,.26,1.29,.39,2.06,.39Z"/><path class="cls-1" d="M96.73,.29c.11,.06,.23,.17,.37,.34l10.72,13.95c-.03-.22-.04-.44-.05-.65,0-.21-.01-.42-.01-.61V.21h2.2V18.71h-1.27c-.2,0-.36-.03-.5-.1s-.27-.18-.39-.35l-10.71-13.94c.02,.21,.03,.43,.04,.63,0,.21,.01,.4,.01,.57v13.19h-2.2V.21h1.29c.22,0,.39,.03,.5,.08Z"/><path class="cls-1" d="M119.12,18.71h-2.51V.21h2.51V18.71Z"/><path class="cls-1" d="M123.61,.21h2c.22,0,.4,.06,.54,.17,.14,.11,.24,.25,.31,.43l5.23,13.06c.12,.29,.23,.61,.33,.96,.1,.34,.2,.7,.29,1.07,.08-.37,.16-.73,.25-1.07s.2-.66,.32-.96l5.2-13.06c.06-.15,.16-.28,.31-.41,.15-.13,.33-.19,.54-.19h2.01l-7.54,18.51h-2.26L123.61,.21Z"/><path class="cls-1" d="M156.4,.21V2.25h-8.89v6.15h7.19v1.96h-7.19v6.32h8.89v2.04h-11.4V.21h11.4Z"/><path class="cls-1" d="M164.43,10.99v7.72h-2.49V.21h5.23c1.17,0,2.18,.12,3.03,.35,.85,.24,1.56,.58,2.11,1.03s.97,.99,1.23,1.62c.27,.63,.4,1.34,.4,2.13,0,.65-.1,1.27-.31,1.83-.21,.57-.51,1.08-.9,1.53-.39,.45-.87,.84-1.43,1.16s-1.2,.56-1.92,.72c.31,.18,.58,.44,.83,.79l5.4,7.35h-2.22c-.46,0-.79-.18-1.01-.53l-4.8-6.61c-.15-.21-.31-.36-.48-.45-.17-.09-.43-.13-.77-.13h-1.9Zm0-1.82h2.62c.73,0,1.38-.09,1.93-.27,.56-.18,1.02-.43,1.4-.75,.37-.32,.66-.71,.85-1.16,.19-.45,.28-.94,.28-1.49,0-1.1-.36-1.93-1.09-2.49-.73-.56-1.81-.84-3.25-.84h-2.74v6.99Z"/><path class="cls-1" d="M189.48,3.1c-.08,.13-.16,.23-.25,.29-.09,.06-.2,.1-.34,.1-.15,0-.32-.07-.51-.22s-.44-.31-.74-.48c-.3-.18-.65-.34-1.07-.49-.42-.15-.92-.22-1.52-.22-.56,0-1.05,.08-1.49,.23-.43,.15-.79,.36-1.08,.61-.29,.26-.51,.56-.65,.91-.15,.35-.22,.73-.22,1.13,0,.52,.13,.95,.38,1.28,.25,.34,.59,.63,1.01,.87,.42,.24,.89,.45,1.42,.63,.53,.18,1.07,.36,1.63,.55s1.1,.4,1.63,.64,1,.54,1.42,.9,.75,.8,1.01,1.33c.25,.53,.38,1.17,.38,1.94,0,.81-.14,1.57-.41,2.28s-.68,1.33-1.21,1.85c-.53,.53-1.18,.94-1.95,1.24-.77,.3-1.65,.45-2.63,.45-1.2,0-2.29-.22-3.27-.65s-1.83-1.02-2.53-1.76l.72-1.19c.07-.09,.15-.17,.25-.24,.1-.06,.21-.1,.33-.1,.18,0,.39,.1,.62,.29,.23,.19,.52,.41,.87,.64,.35,.23,.77,.45,1.27,.64,.5,.19,1.1,.29,1.81,.29,.59,0,1.12-.08,1.59-.24,.46-.16,.86-.39,1.18-.69,.32-.3,.57-.65,.74-1.06,.17-.41,.26-.87,.26-1.38,0-.56-.13-1.02-.38-1.38-.25-.36-.59-.66-1-.9-.41-.24-.88-.44-1.41-.61-.53-.17-1.07-.34-1.63-.52-.56-.18-1.1-.38-1.63-.61-.53-.23-1-.53-1.41-.9-.41-.37-.75-.83-1-1.39-.25-.55-.38-1.24-.38-2.06,0-.65,.13-1.29,.38-1.9,.25-.61,.62-1.15,1.1-1.63,.48-.47,1.08-.85,1.79-1.14,.71-.28,1.53-.43,2.45-.43,1.03,0,1.98,.16,2.83,.49s1.6,.8,2.23,1.42l-.61,1.19Z"/><path class="cls-1" d="M198.34,18.71h-2.51V.21h2.51V18.71Z"/><path class="cls-1" d="M217.58,.21V2.31h-5.98V18.71h-2.51V2.31h-6V.21h14.49Z"/><path class="cls-1" d="M229.02,11.35v7.36h-2.49v-7.36L219.75,.21h2.2c.22,0,.4,.06,.53,.17,.13,.11,.24,.25,.34,.41l4.24,7.19c.17,.3,.32,.59,.43,.85,.12,.27,.22,.53,.32,.79,.09-.27,.2-.53,.31-.8,.11-.27,.25-.55,.43-.84l4.22-7.19c.08-.14,.18-.27,.32-.39,.13-.13,.31-.19,.52-.19h2.22l-6.79,11.15Z"/><path class="cls-1" d="M263.29,9.47c0,1.39-.22,2.66-.66,3.82-.44,1.16-1.06,2.15-1.86,2.99s-1.76,1.48-2.89,1.94c-1.12,.46-2.37,.69-3.73,.69s-2.6-.23-3.72-.69c-1.12-.46-2.08-1.11-2.88-1.94s-1.42-1.83-1.86-2.99c-.44-1.16-.66-2.43-.66-3.82s.22-2.66,.66-3.82c.44-1.16,1.06-2.16,1.86-3s1.76-1.49,2.88-1.96c1.12-.46,2.36-.7,3.72-.7s2.6,.23,3.73,.7c1.12,.47,2.09,1.12,2.89,1.96s1.42,1.84,1.86,3c.44,1.16,.66,2.43,.66,3.82Zm-2.57,0c0-1.14-.16-2.16-.46-3.06-.31-.9-.75-1.67-1.32-2.29-.57-.62-1.26-1.1-2.07-1.44-.81-.34-1.71-.5-2.71-.5s-1.89,.17-2.7,.5c-.81,.34-1.5,.82-2.07,1.44-.57,.62-1.01,1.39-1.32,2.29-.31,.9-.47,1.92-.47,3.06s.16,2.16,.47,3.06c.31,.9,.75,1.66,1.32,2.29s1.26,1.1,2.07,1.43c.81,.33,1.71,.5,2.7,.5s1.9-.17,2.71-.5c.81-.33,1.5-.81,2.07-1.43s1.01-1.39,1.32-2.29c.31-.9,.46-1.92,.46-3.06Z"/><path class="cls-1" d="M279.79,.21V2.25h-8.89v6.47h7.59v2.04h-7.59v7.96h-2.52V.21h11.4Z"/><path class="cls-1" d="M100.48,56.56h-7.02v-12.72h-12.22v12.72h-7.02V26.48h7.02v12.57h12.22v-12.57h7.02v30.08Z"/><path class="cls-1" d="M136.15,41.51c0,2.17-.38,4.2-1.12,6.07-.75,1.87-1.81,3.5-3.17,4.88s-3,2.47-4.92,3.25c-1.92,.78-4.05,1.18-6.39,1.18s-4.47-.39-6.4-1.18c-1.93-.79-3.58-1.87-4.94-3.25-1.37-1.38-2.43-3.01-3.18-4.88s-1.13-3.89-1.13-6.07,.38-4.2,1.13-6.07,1.81-3.5,3.18-4.87c1.37-1.38,3.02-2.46,4.94-3.24,1.93-.79,4.06-1.18,6.4-1.18s4.47,.4,6.39,1.19,3.56,1.88,4.92,3.25c1.36,1.38,2.42,3,3.17,4.87,.75,1.87,1.12,3.89,1.12,6.05Zm-7.14,0c0-1.49-.19-2.83-.58-4.02-.39-1.19-.94-2.2-1.66-3.02-.72-.83-1.61-1.46-2.65-1.9-1.05-.44-2.24-.66-3.57-.66s-2.55,.22-3.6,.66c-1.05,.44-1.94,1.07-2.66,1.9-.72,.83-1.28,1.83-1.66,3.02s-.58,2.53-.58,4.02,.19,2.85,.58,4.04,.94,2.2,1.66,3.02c.72,.83,1.61,1.46,2.66,1.89,1.05,.43,2.25,.65,3.6,.65s2.53-.22,3.57-.65c1.05-.43,1.93-1.06,2.65-1.89,.72-.83,1.28-1.83,1.66-3.02,.38-1.19,.58-2.54,.58-4.04Z"/><path class="cls-1" d="M153.04,51.05c.94,0,1.77-.16,2.51-.46,.74-.31,1.36-.75,1.87-1.33,.51-.58,.9-1.28,1.17-2.12,.27-.83,.4-1.78,.4-2.84V26.48h6.98v17.82c0,1.84-.3,3.54-.9,5.08-.6,1.54-1.46,2.87-2.57,3.98-1.12,1.12-2.47,1.98-4.07,2.6-1.6,.62-3.39,.93-5.39,.93s-3.81-.31-5.41-.93-2.95-1.49-4.07-2.6-1.97-2.44-2.56-3.98c-.59-1.54-.89-3.23-.89-5.08V26.48h6.98v17.8c0,1.06,.13,2.01,.4,2.84,.27,.83,.66,1.54,1.17,2.13,.51,.59,1.13,1.03,1.87,1.34,.74,.31,1.57,.46,2.51,.46Z"/><path class="cls-1" d="M188.3,32.59c-.21,.33-.42,.58-.65,.74-.23,.17-.52,.25-.88,.25-.32,0-.66-.1-1.02-.3-.36-.2-.78-.42-1.24-.67-.46-.25-.99-.47-1.58-.67-.59-.2-1.27-.3-2.02-.3-1.31,0-2.28,.28-2.92,.84s-.96,1.31-.96,2.26c0,.61,.19,1.11,.58,1.51,.39,.4,.89,.74,1.52,1.03,.63,.29,1.34,.55,2.15,.8,.8,.24,1.63,.51,2.47,.8,.84,.3,1.66,.64,2.47,1.04,.8,.4,1.52,.91,2.15,1.53s1.13,1.37,1.52,2.26c.39,.89,.58,1.96,.58,3.21,0,1.39-.24,2.69-.72,3.9-.48,1.21-1.18,2.27-2.1,3.17-.92,.9-2.04,1.61-3.39,2.13-1.34,.52-2.87,.77-4.57,.77-.94,0-1.89-.1-2.86-.29s-1.91-.46-2.82-.81c-.91-.35-1.76-.77-2.56-1.25-.8-.48-1.49-1.02-2.09-1.61l2.06-3.26c.15-.25,.36-.45,.64-.6s.57-.23,.89-.23c.41,0,.83,.13,1.25,.39,.42,.26,.89,.55,1.42,.87,.53,.32,1.14,.61,1.83,.87s1.5,.39,2.44,.39c1.27,0,2.25-.28,2.95-.84,.7-.56,1.05-1.44,1.05-2.65,0-.7-.19-1.27-.58-1.71-.39-.44-.89-.81-1.52-1.09-.63-.29-1.34-.54-2.14-.76-.8-.22-1.62-.46-2.46-.73-.84-.27-1.66-.6-2.46-.99-.8-.39-1.51-.91-2.14-1.55-.63-.64-1.13-1.44-1.52-2.4-.39-.96-.58-2.14-.58-3.54,0-1.13,.23-2.23,.68-3.3,.45-1.07,1.12-2.03,2-2.87,.88-.84,1.96-1.51,3.24-2.01,1.28-.5,2.75-.75,4.4-.75,.92,0,1.82,.07,2.69,.22,.87,.14,1.7,.36,2.49,.64,.79,.28,1.52,.62,2.2,1.01,.68,.39,1.29,.84,1.83,1.33l-1.73,3.24Z"/><path class="cls-1" d="M216.79,26.48v5.53h-8.46v24.55h-6.98v-24.55h-8.47v-5.53h23.91Z"/><path class="cls-1" d="M249.16,41.51c0,2.17-.38,4.2-1.13,6.07s-1.81,3.5-3.17,4.88c-1.36,1.38-3,2.47-4.93,3.25-1.92,.78-4.05,1.18-6.39,1.18s-4.47-.39-6.4-1.18c-1.93-.79-3.58-1.87-4.94-3.25s-2.43-3.01-3.18-4.88-1.13-3.89-1.13-6.07,.38-4.2,1.13-6.07,1.81-3.5,3.18-4.87c1.37-1.38,3.02-2.46,4.94-3.24,1.93-.79,4.06-1.18,6.4-1.18s4.47,.4,6.39,1.19c1.92,.79,3.56,1.88,4.93,3.25,1.36,1.38,2.42,3,3.17,4.87s1.13,3.89,1.13,6.05Zm-7.14,0c0-1.49-.19-2.83-.58-4.02s-.94-2.2-1.66-3.02c-.72-.83-1.61-1.46-2.65-1.9-1.05-.44-2.24-.66-3.57-.66s-2.55,.22-3.6,.66c-1.05,.44-1.94,1.07-2.66,1.9-.72,.83-1.28,1.83-1.66,3.02s-.58,2.53-.58,4.02,.19,2.85,.58,4.04,.94,2.2,1.66,3.02c.72,.83,1.61,1.46,2.66,1.89s2.25,.65,3.6,.65,2.53-.22,3.57-.65,1.93-1.06,2.65-1.89c.72-.83,1.28-1.83,1.66-3.02s.58-2.54,.58-4.04Z"/><path class="cls-1" d="M257.98,26.53c.21,.03,.39,.08,.56,.16,.17,.08,.32,.18,.47,.32,.15,.14,.32,.32,.52,.56l14.29,18.06c-.06-.58-.1-1.14-.12-1.68s-.04-1.06-.04-1.54v-15.92h6.15v30.08h-3.63c-.54,0-.99-.08-1.36-.25-.37-.16-.73-.47-1.07-.91l-14.18-17.92c.04,.52,.08,1.03,.1,1.54,.03,.5,.04,.97,.04,1.41v16.12h-6.15V26.48h3.68c.3,0,.56,.01,.76,.04Z"/></g></svg>