<?xml version="1.0" encoding="UTF-8"?><svg id="Wide-reverse-red-outline" xmlns="http://www.w3.org/2000/svg" viewBox="0 0 306.05 32.65"><defs><style>.cls-1{fill:#fff;}.cls-2{fill:#c8102e;}</style></defs><g><polygon class="cls-1" points="34.33 17.42 34.33 11.05 25.03 11.05 25.03 6.37 26.97 6.37 26.97 0 14.99 0 14.99 6.37 16.8 6.37 16.8 11.05 10.17 11.05 10.17 6.37 11.98 6.37 11.98 0 0 0 0 6.37 1.94 6.37 1.94 18 5.66 21.21 9.43 21.21 9.43 26.28 7.5 26.28 7.5 32.65 19.47 32.65 19.47 26.28 17.67 26.28 17.67 25.11 24.16 25.11 24.16 26.28 22.35 26.28 22.35 32.65 34.33 32.65 34.33 26.28 32.39 26.28 32.39 17.42 34.33 17.42"/><path class="cls-2" d="M33.43,16.51v-4.56h-9.31V5.46h1.94V.91H15.9V5.46h1.81v6.49H9.26V5.46h1.81V.91H.91V5.46h1.94v12.12l3.16,2.72h4.34v6.89h-1.94v4.55h10.17v-4.55h-1.81v-2.99h8.31v2.99h-1.81v4.55h10.16v-4.55h-1.94v-10.68h1.94Zm-11.25,2.87l2.83-2.51v2.51h-2.83Z"/><polygon class="cls-1" points="18.57 16.51 16.76 16.51 16.76 19.44 20.73 19.44 23.26 17.19 23.26 4.6 25.2 4.6 25.2 1.77 16.76 1.77 16.76 4.6 18.57 4.6 18.57 16.51"/><polygon class="cls-1" points="10.34 16.51 8.4 16.51 8.4 4.6 10.21 4.6 10.21 1.77 1.77 1.77 1.77 4.6 3.71 4.6 3.71 17.19 6.32 19.44 10.34 19.44 10.34 16.51"/><polygon class="cls-1" points="32.56 15.65 32.56 12.82 24.12 12.82 24.12 15.65 25.93 15.65 25.93 20.3 15.9 20.3 15.9 15.65 17.71 15.65 17.71 12.82 9.26 12.82 9.26 15.65 11.2 15.65 11.2 28.05 9.26 28.05 9.26 30.88 17.71 30.88 17.71 28.05 15.9 28.05 15.9 23.34 25.93 23.34 25.93 28.05 24.12 28.05 24.12 30.88 32.56 30.88 32.56 28.05 30.63 28.05 30.63 15.65 32.56 15.65"/></g><g><path class="cls-1" d="M51.43,23.54c.58,0,1.1-.1,1.55-.29,.45-.2,.84-.47,1.16-.82,.32-.35,.56-.77,.72-1.26,.17-.49,.25-1.02,.25-1.61V11.07h1.88v8.49c0,.81-.13,1.55-.38,2.24-.26,.69-.62,1.29-1.1,1.79-.48,.5-1.06,.9-1.75,1.18-.69,.29-1.46,.43-2.32,.43s-1.63-.14-2.32-.43c-.69-.29-1.27-.68-1.75-1.18-.48-.5-.85-1.1-1.11-1.79-.26-.69-.39-1.44-.39-2.24V11.07h1.88v8.48c0,.58,.08,1.12,.25,1.61,.17,.49,.41,.91,.72,1.26,.31,.35,.7,.63,1.16,.82s.98,.3,1.55,.3Z"/><path class="cls-1" d="M62.85,11.14c.08,.04,.17,.13,.28,.26l8.09,10.53c-.02-.17-.03-.33-.04-.49,0-.16,0-.31,0-.46V11.07h1.66v13.97h-.96c-.15,0-.27-.03-.38-.08-.1-.05-.2-.14-.3-.26l-8.08-10.52c.01,.16,.02,.32,.03,.48,0,.16,0,.3,0,.43v9.96h-1.66V11.07h.98c.17,0,.29,.02,.38,.06Z"/><path class="cls-1" d="M79.75,25.05h-1.89V11.07h1.89v13.97Z"/><path class="cls-1" d="M83.15,11.07h1.51c.17,0,.31,.04,.41,.13,.1,.08,.18,.19,.23,.32l3.95,9.86c.09,.22,.17,.46,.25,.72,.08,.26,.15,.53,.22,.81,.06-.28,.12-.55,.19-.81s.15-.5,.24-.72l3.93-9.86c.04-.11,.12-.21,.23-.31,.11-.09,.25-.14,.41-.14h1.52l-5.69,13.97h-1.71l-5.69-13.97Z"/><path class="cls-1" d="M107.9,11.07v1.54h-6.71v4.64h5.43v1.48h-5.43v4.77h6.71v1.54h-8.61V11.07h8.61Z"/><path class="cls-1" d="M113.97,19.22v5.83h-1.88V11.07h3.95c.88,0,1.65,.09,2.29,.27,.64,.18,1.17,.44,1.59,.78s.73,.75,.93,1.22c.2,.48,.3,1.01,.3,1.6,0,.49-.08,.96-.23,1.38-.16,.43-.38,.81-.68,1.16-.3,.34-.66,.63-1.08,.87s-.91,.42-1.45,.55c.23,.14,.44,.33,.62,.59l4.08,5.55h-1.68c-.34,0-.6-.13-.76-.4l-3.63-4.99c-.11-.16-.23-.27-.36-.34-.13-.07-.32-.1-.58-.1h-1.43Zm0-1.38h1.98c.55,0,1.04-.07,1.46-.2,.42-.13,.77-.32,1.05-.57,.28-.24,.5-.53,.64-.87,.14-.34,.21-.71,.21-1.12,0-.83-.27-1.46-.82-1.88-.55-.42-1.37-.63-2.45-.63h-2.07v5.28Z"/><path class="cls-1" d="M132.87,13.26c-.06,.1-.12,.17-.18,.22-.07,.05-.15,.07-.25,.07-.11,0-.24-.06-.38-.17s-.33-.23-.56-.37c-.22-.13-.49-.25-.81-.37-.32-.11-.7-.17-1.15-.17-.42,0-.8,.06-1.12,.17-.33,.11-.6,.27-.81,.46-.22,.19-.38,.42-.49,.69-.11,.26-.17,.55-.17,.85,0,.39,.1,.71,.29,.97,.19,.26,.45,.48,.76,.66,.32,.18,.67,.34,1.07,.47,.4,.13,.81,.27,1.23,.41,.42,.14,.83,.3,1.23,.48,.4,.18,.76,.4,1.07,.68s.57,.61,.76,1c.19,.4,.29,.88,.29,1.46,0,.61-.1,1.18-.31,1.72s-.51,1-.91,1.4-.89,.71-1.47,.94c-.58,.23-1.24,.34-1.98,.34-.9,0-1.73-.16-2.47-.49s-1.38-.77-1.91-1.33l.55-.9c.05-.07,.12-.13,.19-.18,.07-.05,.16-.07,.25-.07,.14,0,.29,.07,.47,.22,.17,.15,.39,.31,.66,.48,.26,.18,.58,.34,.96,.48,.37,.15,.83,.22,1.37,.22,.45,0,.85-.06,1.2-.18,.35-.12,.65-.3,.89-.52,.24-.22,.43-.49,.56-.8,.13-.31,.2-.66,.2-1.04,0-.42-.1-.77-.29-1.04-.19-.27-.44-.5-.76-.68-.31-.18-.67-.34-1.07-.46-.4-.13-.81-.26-1.23-.39-.42-.13-.83-.29-1.23-.46-.4-.17-.76-.4-1.07-.68-.31-.28-.56-.63-.75-1.05-.19-.42-.29-.94-.29-1.55,0-.49,.1-.97,.29-1.43,.19-.46,.47-.87,.83-1.23s.81-.64,1.35-.86c.54-.21,1.15-.32,1.85-.32,.78,0,1.49,.12,2.13,.37s1.21,.6,1.69,1.07l-.46,.9Z"/><path class="cls-1" d="M139.56,25.05h-1.89V11.07h1.89v13.97Z"/><path class="cls-1" d="M154.08,11.07v1.59h-4.51v12.38h-1.89V12.66h-4.53v-1.59h10.94Z"/><path class="cls-1" d="M162.72,19.49v5.56h-1.88v-5.56l-5.12-8.41h1.66c.17,0,.3,.04,.4,.13,.1,.08,.18,.19,.25,.31l3.2,5.43c.13,.23,.24,.44,.33,.64,.09,.2,.17,.4,.24,.59,.07-.2,.15-.4,.23-.6,.08-.2,.19-.41,.32-.63l3.19-5.43c.06-.1,.14-.2,.24-.3,.1-.09,.23-.14,.4-.14h1.68l-5.13,8.41Z"/><path class="cls-1" d="M188.59,18.06c0,1.05-.17,2.01-.5,2.88-.33,.87-.8,1.63-1.4,2.26s-1.33,1.12-2.18,1.47c-.85,.35-1.79,.52-2.81,.52s-1.96-.17-2.81-.52c-.85-.35-1.57-.84-2.17-1.47s-1.07-1.38-1.4-2.26c-.33-.87-.5-1.83-.5-2.88s.17-2.01,.5-2.88c.33-.87,.8-1.63,1.4-2.26s1.33-1.13,2.17-1.48c.84-.35,1.78-.53,2.81-.53s1.96,.18,2.81,.53c.85,.35,1.57,.84,2.18,1.48s1.07,1.39,1.4,2.26c.33,.87,.5,1.83,.5,2.88Zm-1.94,0c0-.86-.12-1.63-.35-2.31-.23-.68-.57-1.26-1-1.73-.43-.47-.95-.83-1.56-1.09-.61-.25-1.29-.38-2.05-.38s-1.43,.13-2.04,.38c-.61,.25-1.13,.62-1.57,1.09-.43,.47-.77,1.05-1,1.73-.23,.68-.35,1.45-.35,2.31s.12,1.63,.35,2.31c.23,.68,.57,1.25,1,1.73s.95,.83,1.57,1.08c.61,.25,1.29,.38,2.04,.38s1.44-.12,2.05-.38c.61-.25,1.13-.61,1.56-1.08s.76-1.05,1-1.73c.23-.68,.35-1.45,.35-2.31Z"/><path class="cls-1" d="M201.05,11.07v1.54h-6.71v4.88h5.73v1.54h-5.73v6.01h-1.9V11.07h8.61Z"/><path class="cls-1" d="M221.36,25.05h-3.32v-6.01h-5.77v6.01h-3.32V10.84h3.32v5.94h5.77v-5.94h3.32v14.21Z"/><path class="cls-1" d="M238.21,17.94c0,1.03-.18,1.98-.53,2.87-.35,.88-.85,1.65-1.5,2.31s-1.42,1.17-2.33,1.54c-.91,.37-1.91,.56-3.02,.56s-2.11-.19-3.02-.56c-.91-.37-1.69-.88-2.33-1.54s-1.15-1.42-1.5-2.31c-.35-.88-.53-1.84-.53-2.87s.18-1.98,.53-2.87c.35-.88,.86-1.65,1.5-2.3,.65-.65,1.42-1.16,2.33-1.53,.91-.37,1.92-.56,3.02-.56s2.11,.19,3.02,.56c.91,.37,1.68,.89,2.33,1.54,.64,.65,1.14,1.42,1.5,2.3,.35,.88,.53,1.84,.53,2.86Zm-3.37,0c0-.7-.09-1.33-.27-1.9s-.44-1.04-.79-1.43c-.34-.39-.76-.69-1.25-.9s-1.06-.31-1.69-.31-1.2,.1-1.7,.31-.92,.51-1.26,.9-.6,.87-.79,1.43c-.18,.56-.27,1.19-.27,1.9s.09,1.34,.27,1.91c.18,.56,.44,1.04,.79,1.43,.34,.39,.76,.69,1.26,.89,.5,.2,1.06,.31,1.7,.31s1.19-.1,1.69-.31c.49-.21,.91-.5,1.25-.89,.34-.39,.6-.87,.79-1.43,.18-.56,.27-1.2,.27-1.91Z"/><path class="cls-1" d="M246.18,22.44c.44,0,.84-.07,1.18-.22,.35-.15,.64-.36,.88-.63,.24-.27,.42-.61,.55-1,.13-.39,.19-.84,.19-1.34V10.84h3.29v8.42c0,.87-.14,1.67-.42,2.4-.28,.73-.69,1.35-1.21,1.88-.53,.53-1.17,.94-1.92,1.23-.75,.29-1.6,.44-2.54,.44s-1.8-.15-2.55-.44c-.75-.29-1.39-.7-1.92-1.23-.53-.53-.93-1.15-1.21-1.88-.28-.73-.42-1.53-.42-2.4V10.84h3.3v8.41c0,.5,.06,.95,.19,1.34,.13,.39,.31,.73,.55,1,.24,.28,.53,.49,.88,.63,.35,.15,.74,.22,1.18,.22Z"/><path class="cls-1" d="M262.84,13.73c-.1,.16-.2,.27-.31,.35-.11,.08-.25,.12-.42,.12-.15,0-.31-.05-.48-.14-.17-.09-.37-.2-.58-.32-.22-.12-.47-.22-.75-.32-.28-.09-.6-.14-.96-.14-.62,0-1.08,.13-1.38,.4-.3,.26-.45,.62-.45,1.07,0,.29,.09,.52,.27,.71,.18,.19,.42,.35,.72,.49s.63,.26,1.01,.38c.38,.11,.77,.24,1.17,.38,.4,.14,.78,.3,1.17,.49,.38,.19,.72,.43,1.01,.72,.3,.29,.53,.65,.72,1.07,.18,.42,.27,.92,.27,1.52,0,.66-.11,1.27-.34,1.84-.23,.57-.56,1.07-.99,1.5-.43,.43-.97,.76-1.6,1-.63,.24-1.35,.37-2.16,.37-.44,0-.89-.05-1.35-.14s-.9-.22-1.33-.38c-.43-.17-.83-.36-1.21-.59s-.71-.48-.98-.76l.97-1.54c.07-.12,.17-.21,.3-.28,.13-.07,.27-.11,.42-.11,.2,0,.39,.06,.59,.19,.2,.12,.42,.26,.67,.41s.54,.29,.86,.41c.33,.12,.71,.19,1.15,.19,.6,0,1.06-.13,1.39-.39,.33-.26,.5-.68,.5-1.25,0-.33-.09-.6-.27-.81-.18-.21-.42-.38-.72-.52s-.63-.26-1.01-.36c-.38-.1-.76-.22-1.16-.35s-.78-.28-1.16-.47c-.38-.19-.71-.43-1.01-.73-.3-.3-.53-.68-.72-1.13-.18-.45-.27-1.01-.27-1.67,0-.53,.11-1.05,.32-1.56,.21-.51,.53-.96,.95-1.36,.42-.4,.93-.71,1.53-.95s1.3-.36,2.08-.36c.44,0,.86,.03,1.27,.1,.41,.07,.8,.17,1.17,.3,.37,.13,.72,.29,1.04,.48,.32,.19,.61,.39,.86,.63l-.82,1.53Z"/><path class="cls-1" d="M276.29,10.84v2.61h-4v11.59h-3.3V13.45h-4v-2.61h11.29Z"/><path class="cls-1" d="M291.58,17.94c0,1.03-.18,1.98-.53,2.87-.35,.88-.85,1.65-1.5,2.31s-1.42,1.17-2.33,1.54c-.91,.37-1.91,.56-3.02,.56s-2.11-.19-3.02-.56c-.91-.37-1.69-.88-2.33-1.54s-1.15-1.42-1.5-2.31c-.35-.88-.53-1.84-.53-2.87s.18-1.98,.53-2.87c.35-.88,.86-1.65,1.5-2.3,.65-.65,1.42-1.16,2.33-1.53,.91-.37,1.92-.56,3.02-.56s2.11,.19,3.02,.56c.91,.37,1.68,.89,2.33,1.54,.64,.65,1.14,1.42,1.5,2.3,.35,.88,.53,1.84,.53,2.86Zm-3.37,0c0-.7-.09-1.33-.27-1.9s-.44-1.04-.79-1.43c-.34-.39-.76-.69-1.25-.9s-1.06-.31-1.69-.31-1.2,.1-1.7,.31-.92,.51-1.26,.9-.6,.87-.79,1.43c-.18,.56-.27,1.19-.27,1.9s.09,1.34,.27,1.91c.18,.56,.44,1.04,.79,1.43,.34,.39,.76,.69,1.26,.89,.5,.2,1.06,.31,1.7,.31s1.19-.1,1.69-.31c.49-.21,.91-.5,1.25-.89,.34-.39,.6-.87,.79-1.43,.18-.56,.27-1.2,.27-1.91Z"/><path class="cls-1" d="M295.74,10.86c.1,.01,.18,.04,.26,.07,.08,.04,.15,.09,.22,.15,.07,.07,.15,.15,.24,.26l6.75,8.53c-.03-.27-.04-.54-.06-.79-.01-.26-.02-.5-.02-.73v-7.52h2.91v14.21h-1.72c-.25,0-.47-.04-.64-.12-.17-.08-.34-.22-.51-.43l-6.7-8.46c.02,.25,.04,.49,.05,.73,.01,.24,.02,.46,.02,.67v7.62h-2.91V10.84h1.74c.14,0,.26,0,.36,.02Z"/></g></svg>