<?xml version="1.0" encoding="utf-8"?>
<!-- Generator: Adobe Illustrator 16.0.4, SVG Export Plug-In . SVG Version: 6.00 Build 0)  -->
<!DOCTYPE svg PUBLIC "-//W3C//DTD SVG 1.1//EN" "http://www.w3.org/Graphics/SVG/1.1/DTD/svg11.dtd">
<svg version="1.1" id="Layer_1" xmlns="http://www.w3.org/2000/svg" xmlns:xlink="http://www.w3.org/1999/xlink" x="0px" y="0px"
	 width="24px" height="24px" viewBox="0 0 24 24" enable-background="new 0 0 24 24" xml:space="preserve">
<g>
	<polygon fill="#FFFFFF" points="3.25,9.877 3.25,21.301 7.065,22.344 7.065,10.913 	"/>
	<polygon fill="#FFFFFF" points="8.427,11.286 8.427,22.716 12.412,23.802 12.412,12.375 	"/>
	<polygon fill="#FFFFFF" points="22.997,21.301 22.997,9.877 19.266,10.89 19.266,22.32 	"/>
	<polygon fill="#FFFFFF" points="13.777,12.392 13.777,23.816 17.895,22.692 17.895,11.264 	"/>
	<path fill="#FFFFFF" d="M7.367,7.723L3.249,8.861l3.865,1.045l3.904-1.057c0.652,0.254,1.212,0.498,1.628,0.695L9.21,10.47
		l3.89,1.05l4.164-1.124l-2.848-0.769c0.841-0.044,1.937-0.132,3.094-0.298l1.833,0.496l-0.007,0.013l3.621-0.977l-1.643-0.457
		c1.161-0.45,2.092-1.064,2.478-1.898c0.297-0.647,0.423-1.694-0.677-3.027l-1.27,1.039c0.446,0.546,0.599,0.978,0.457,1.295
		c-0.297,0.635-1.461,1.136-2.963,1.493c-0.244,0.062-0.496,0.114-0.755,0.163c0.247-0.146,0.461-0.327,0.655-0.521
		c0.685-0.699,1.049-1.665,0.971-2.64c-0.091-1.094-0.717-1.962-1.669-2.331c-0.44-0.17-0.883-0.256-1.307-0.256
		c-1.749,0-2.958,1.354-3.763,2.864c-0.49-1.246-1.15-2.466-1.87-3.23C10.789,0.493,9.723,0,8.683,0
		c-0.57,0-1.125,0.146-1.639,0.438C5.893,1.09,5.424,2.171,5.75,3.415c0.23,0.866,0.846,1.776,1.64,2.624
		c-1.864-0.382-3.8-0.487-5.242,0.144C1.067,6.657,0.345,7.473,0,8.613l1.574,0.479C1.773,8.424,2.18,7.962,2.809,7.686
		C3.902,7.21,5.51,7.314,7.145,7.667c0.747,0.155,1.502,0.364,2.212,0.596 M7.345,2.999c-0.138-0.527,0.003-0.842,0.511-1.13
		C8.12,1.72,8.399,1.645,8.685,1.645c0.582,0,1.226,0.313,1.729,0.842c0.866,0.916,1.542,2.543,1.932,3.86l-1.546,0.426
		C9.272,5.748,7.66,4.209,7.345,2.999z M15.951,6.923l-1.53-0.428c0.603-1.541,1.556-3.13,2.815-3.13
		c0.225,0,0.466,0.046,0.717,0.143c0.508,0.195,0.604,0.723,0.625,0.937c0.037,0.493-0.167,1.225-0.892,1.653
		C17.166,6.41,16.559,6.682,15.951,6.923z"/>
</g>
</svg>
